# xmcd
#
# Track frame offsets:
#	150
#	12605
#	24474
#	38400
#	50573
#	58531
#	70867
#	82795
#	95592
#	111100
#	121126
#	133482
#	146563
#	152788
#
# Disc length: 2189 seconds
#
# Revision: 1
# Processed by: cddbd v1.5.1PL0 Copyright (c) Steve Scherf et al.
# Submitted via: EasyCDDAExtractor 6.0.0.1
#
DISCID=ba088b0e
DTITLE=Various Artist - Steirischen Harmonika
DYEAR=2005
DGENRE=Volksmusik
TTITLE0=Jacob Bergmann - Jo mir drei
TTITLE1=Willi Kröll - Musikantenwelt
TTITLE2=Bettina and Patrica - Zwei Harmonikas
TTITLE3=Alpenzillertaler - I hab' a Tiroler Herz
TTITLE4=Familie Laimer - Musikanten Polka
TTITLE5=Die Donautaler - immer am Drücker
TTITLE6=Heinhold Gasser  - Warte halt a bissl
TTITLE7=Die Kreuzbichler - Berg in Sicht
TTITLE8=Hias Kirchgasser - Musistuben Polka
TTITLE9=Die Hinterlechner - Heut geht's rund
TTITLE10=Ensemble Franz Mihelic - Ringelspielpolka
TTITLE11=Zillertaler Schürzenjäger - hab i di aufg'weckt
TTITLE12=Marc Pircher - Schönblick Polka
TTITLE13=Oberpfäzer Spitzboum - sag mir was ich für dich bin
EXTD=
EXTT0=
EXTT1=
EXTT2=
EXTT3=
EXTT4=
EXTT5=
EXTT6=
EXTT7=
EXTT8=
EXTT9=
EXTT10=
EXTT11=
EXTT12=
EXTT13=
PLAYORDER=
